<?xml version="1.0" encoding="UTF-8" standalone="no"?>
<!DOCTYPE svg PUBLIC "-//W3C//DTD SVG 1.1//EN"
 "http://www.w3.org/Graphics/SVG/1.1/DTD/svg11.dtd">
<!-- Generated by graphviz version 2.38.0 (20140413.2041)
 -->
<!-- Title: overview Pages: 1 -->
<svg width="347pt" height="315pt"
 viewBox="0.00 0.00 347.00 315.00" xmlns="http://www.w3.org/2000/svg" xmlns:xlink="http://www.w3.org/1999/xlink">
<g id="graph0" class="graph" transform="scale(1 1) rotate(0) translate(4 311)">
<title>overview</title>
<polygon fill="white" stroke="none" points="-4,4 -4,-311 343,-311 343,4 -4,4"/>
<g id="clust1" class="cluster"><title>cluster_TIFF</title>
<polygon fill="none" stroke="black" points="8,-8 8,-299 331,-299 331,-8 8,-8"/>
<text text-anchor="middle" x="169.5" y="-283.8" font-family="Times,serif" font-size="14.00">TIFF File</text>
</g>
<!-- Tiff Header -->
<g id="node1" class="node"><title>Tiff Header</title>
<polygon fill="none" stroke="black" points="98.5,-268 17.5,-268 17.5,-232 98.5,-232 98.5,-268"/>
<text text-anchor="middle" x="58" y="-246.3" font-family="Times,serif" font-size="14.00">Tiff Header</text>
</g>
<!-- IFD Table 0 -->
<g id="node2" class="node"><title>IFD Table 0</title>
<polygon fill="none" stroke="black" points="99.5,-196 16.5,-196 16.5,-160 99.5,-160 99.5,-196"/>
<text text-anchor="middle" x="58" y="-174.3" font-family="Times,serif" font-size="14.00">IFD Table 0</text>
</g>
<!-- Tiff Header&#45;&gt;IFD Table 0 -->
<g id="edge1" class="edge"><title>Tiff Header&#45;&gt;IFD Table 0</title>
<path fill="none" stroke="black" d="M58,-231.697C58,-223.983 58,-214.712 58,-206.112"/>
<polygon fill="black" stroke="black" points="61.5001,-206.104 58,-196.104 54.5001,-206.104 61.5001,-206.104"/>
</g>
<!-- IFD Table 1 -->
<g id="node3" class="node"><title>IFD Table 1</title>
<polygon fill="none" stroke="black" stroke-dasharray="1,5" points="99.5,-124 16.5,-124 16.5,-88 99.5,-88 99.5,-124"/>
<text text-anchor="middle" x="58" y="-102.3" font-family="Times,serif" font-size="14.00">IFD Table 1</text>
</g>
<!-- IFD Table 0&#45;&gt;IFD Table 1 -->
<g id="edge4" class="edge"><title>IFD Table 0&#45;&gt;IFD Table 1</title>
<path fill="none" stroke="black" stroke-dasharray="1,5" d="M58,-159.697C58,-151.983 58,-142.712 58,-134.112"/>
<polygon fill="black" stroke="black" points="61.5001,-134.104 58,-124.104 54.5001,-134.104 61.5001,-134.104"/>
</g>
<!-- Image Data -->
<g id="node4" class="node"><title>Image Data</title>
<polygon fill="none" stroke="black" points="198,-124 118,-124 118,-88 198,-88 198,-124"/>
<text text-anchor="middle" x="158" y="-102.3" font-family="Times,serif" font-size="14.00">Image Data</text>
</g>
<!-- IFD Table 0&#45;&gt;Image Data -->
<g id="edge2" class="edge"><title>IFD Table 0&#45;&gt;Image Data</title>
<path fill="none" stroke="black" d="M82.4628,-159.876C95.2956,-150.893 111.196,-139.763 125.094,-130.034"/>
<polygon fill="black" stroke="black" points="127.258,-132.792 133.443,-124.19 123.244,-127.057 127.258,-132.792"/>
</g>
<!-- Image Metadata -->
<g id="node5" class="node"><title>Image Metadata</title>
<polygon fill="none" stroke="black" points="323.5,-124 216.5,-124 216.5,-88 323.5,-88 323.5,-124"/>
<text text-anchor="middle" x="270" y="-102.3" font-family="Times,serif" font-size="14.00">Image Metadata</text>
</g>
<!-- IFD Table 0&#45;&gt;Image Metadata -->
<g id="edge3" class="edge"><title>IFD Table 0&#45;&gt;Image Metadata</title>
<path fill="none" stroke="black" d="M99.6314,-163.254C130.714,-152.991 173.682,-138.803 208.689,-127.244"/>
<polygon fill="black" stroke="black" points="209.937,-130.518 218.335,-124.059 207.742,-123.871 209.937,-130.518"/>
</g>
<!-- More Data -->
<!-- IFD Table 1&#45;&gt;More Data -->
<g id="edge5" class="edge"><title>IFD Table 1&#45;&gt;More Data</title>
<path fill="none" stroke="black" stroke-dasharray="1,5" d="M57.5056,-87.6966C57.2852,-79.9827 57.0204,-70.7125 56.7746,-62.1124"/>
<polygon fill="black" stroke="black" points="60.273,-62.0003 56.4887,-52.1043 53.2758,-62.2002 60.273,-62.0003"/>
</g>
<!-- More Metadata -->
<!-- IFD Table 1&#45;&gt;More Metadata -->
<g id="edge6" class="edge"><title>IFD Table 1&#45;&gt;More Metadata</title>
<path fill="none" stroke="black" stroke-dasharray="1,5" d="M83.9305,-87.8761C97.6617,-78.8083 114.706,-67.5523 129.536,-57.7592"/>
<polygon fill="black" stroke="black" points="131.554,-60.621 137.97,-52.1898 127.696,-54.7798 131.554,-60.621"/>
</g>
</g>
</svg>
