<?xml version="1.0" encoding="UTF-8" standalone="no"?>
<!DOCTYPE svg PUBLIC "-//W3C//DTD SVG 1.1//EN"
 "http://www.w3.org/Graphics/SVG/1.1/DTD/svg11.dtd">
<!-- Generated by graphviz version 2.38.0 (20140413.2041)
 -->
<!-- Title: overview Pages: 1 -->
<svg width="416pt" height="367pt"
 viewBox="0.00 0.00 416.00 367.00" xmlns="http://www.w3.org/2000/svg" xmlns:xlink="http://www.w3.org/1999/xlink">
<g id="graph0" class="graph" transform="scale(1 1) rotate(0) translate(4 363)">
<title>overview</title>
<polygon fill="white" stroke="none" points="-4,4 -4,-363 412,-363 412,4 -4,4"/>
<g id="clust1" class="cluster"><title>cluster_HOST</title>
<polygon fill="none" stroke="black" points="8,-8 8,-282 180,-282 180,-8 8,-8"/>
<text text-anchor="middle" x="94" y="-266.8" font-family="Times,serif" font-size="14.00">Host OS</text>
</g>
<g id="clust2" class="cluster"><title>cluster_Mavconn</title>
<polygon fill="none" stroke="black" stroke-dasharray="1,5" points="16,-16 16,-251 172,-251 172,-16 16,-16"/>
<text text-anchor="middle" x="94" y="-235.8" font-family="Times,serif" font-size="14.00">MAVConn Middleware</text>
</g>
<!-- MAVLink Broadcast -->
<g id="node1" class="node"><title>MAVLink Broadcast</title>
<polygon fill="none" stroke="black" points="164,-60 28,-60 28,-24 164,-24 164,-60"/>
<text text-anchor="middle" x="96" y="-38.3" font-family="Times,serif" font-size="14.00">MAVLink Broadcast</text>
</g>
<!-- Image Bus -->
<g id="node2" class="node"><title>Image Bus</title>
<polygon fill="none" stroke="black" points="164.5,-220 89.5,-220 89.5,-184 164.5,-184 164.5,-220"/>
<text text-anchor="middle" x="127" y="-198.3" font-family="Times,serif" font-size="14.00">Image Bus</text>
</g>
<!-- Vision -->
<g id="node3" class="node"><title>Vision</title>
<ellipse fill="none" stroke="black" cx="130" cy="-129" rx="34.394" ry="18"/>
<text text-anchor="middle" x="130" y="-125.3" font-family="Times,serif" font-size="14.00">Vision</text>
</g>
<!-- Image Bus&#45;&gt;Vision -->
<g id="edge3" class="edge"><title>Image Bus&#45;&gt;Vision</title>
<path fill="none" stroke="black" d="M127.726,-183.813C128.065,-175.789 128.477,-166.047 128.856,-157.069"/>
<polygon fill="black" stroke="black" points="132.355,-157.168 129.28,-147.029 125.361,-156.872 132.355,-157.168"/>
</g>
<!-- Vision&#45;&gt;MAVLink Broadcast -->
<g id="edge1" class="edge"><title>Vision&#45;&gt;MAVLink Broadcast</title>
<path fill="none" stroke="black" d="M119.547,-101.868C115.424,-91.5602 110.695,-79.7363 106.561,-69.4024"/>
<polygon fill="black" stroke="black" points="116.319,-103.222 123.283,-111.207 122.818,-100.622 116.319,-103.222"/>
<polygon fill="black" stroke="black" points="109.783,-68.0342 102.82,-60.0493 103.284,-70.634 109.783,-68.0342"/>
</g>
<!-- Ctrl -->
<g id="node4" class="node"><title>Ctrl</title>
<ellipse fill="none" stroke="black" cx="51" cy="-129" rx="27" ry="18"/>
<text text-anchor="middle" x="51" y="-125.3" font-family="Times,serif" font-size="14.00">Ctrl</text>
</g>
<!-- Ctrl&#45;&gt;MAVLink Broadcast -->
<g id="edge2" class="edge"><title>Ctrl&#45;&gt;MAVLink Broadcast</title>
<path fill="none" stroke="black" d="M64.4087,-102.673C70.0184,-92.0764 76.5345,-79.7681 82.1867,-69.0918"/>
<polygon fill="black" stroke="black" points="61.2621,-101.136 59.6765,-111.611 67.4486,-104.411 61.2621,-101.136"/>
<polygon fill="black" stroke="black" points="85.3011,-70.6893 86.8868,-60.2138 79.1146,-67.4141 85.3011,-70.6893"/>
</g>
<!-- Autopilot -->
<g id="node5" class="node"><title>Autopilot</title>
<polygon fill="none" stroke="black" points="260,-147 188,-147 188,-111 260,-111 260,-147"/>
<text text-anchor="middle" x="224" y="-125.3" font-family="Times,serif" font-size="14.00">Autopilot</text>
</g>
<!-- Autopilot&#45;&gt;MAVLink Broadcast -->
<g id="edge4" class="edge"><title>Autopilot&#45;&gt;MAVLink Broadcast</title>
<path fill="none" stroke="black" d="M189.641,-105.183C171.32,-93.0174 148.841,-78.0897 130.499,-65.9098"/>
<polygon fill="black" stroke="black" points="187.831,-108.183 198.097,-110.799 191.703,-102.351 187.831,-108.183"/>
<polygon fill="black" stroke="black" points="132.131,-62.7918 121.864,-60.1754 128.258,-68.6231 132.131,-62.7918"/>
<text text-anchor="middle" x="188" y="-81.8" font-family="Times,serif" font-size="14.00">UART</text>
</g>
<!-- Camera(s) -->
<g id="node6" class="node"><title>Camera(s)</title>
<polygon fill="none" stroke="black" points="165.5,-359 88.5,-359 88.5,-323 165.5,-323 165.5,-359"/>
<text text-anchor="middle" x="127" y="-337.3" font-family="Times,serif" font-size="14.00">Camera(s)</text>
</g>
<!-- Camera(s)&#45;&gt;Image Bus -->
<g id="edge7" class="edge"><title>Camera(s)&#45;&gt;Image Bus</title>
<path fill="none" stroke="black" d="M127,-322.926C127,-299.75 127,-258.064 127,-230.461"/>
<polygon fill="black" stroke="black" points="130.5,-230.289 127,-220.289 123.5,-230.289 130.5,-230.289"/>
<text text-anchor="middle" x="140.5" y="-293.8" font-family="Times,serif" font-size="14.00">USB</text>
</g>
<!-- GCS -->
<g id="node7" class="node"><title>GCS</title>
<polygon fill="none" stroke="black" points="332,-147 278,-147 278,-111 332,-111 332,-147"/>
<text text-anchor="middle" x="305" y="-125.3" font-family="Times,serif" font-size="14.00">GCS</text>
</g>
<!-- GCS&#45;&gt;MAVLink Broadcast -->
<g id="edge6" class="edge"><title>GCS&#45;&gt;MAVLink Broadcast</title>
<path fill="none" stroke="black" d="M268.678,-106.281C251.823,-96.7794 231.287,-85.9997 212,-78 198.739,-72.4997 184.303,-67.4444 170.263,-62.9879"/>
<polygon fill="black" stroke="black" points="267.213,-109.476 277.631,-111.403 270.689,-103.4 267.213,-109.476"/>
<polygon fill="black" stroke="black" points="171.213,-59.6181 160.625,-60.0002 169.14,-66.3043 171.213,-59.6181"/>
<text text-anchor="middle" x="272" y="-81.8" font-family="Times,serif" font-size="14.00">Wifi/UDP</text>
</g>
<!-- RF -->
<g id="node8" class="node"><title>RF</title>
<polygon fill="none" stroke="black" points="408,-147 354,-147 354,-111 408,-111 408,-147"/>
<text text-anchor="middle" x="381" y="-125.3" font-family="Times,serif" font-size="14.00">RF</text>
</g>
<!-- RF&#45;&gt;MAVLink Broadcast -->
<g id="edge5" class="edge"><title>RF&#45;&gt;MAVLink Broadcast</title>
<path fill="none" stroke="black" d="M351.976,-104.78C338.429,-95.0625 321.644,-84.5306 305,-78 263.482,-61.7096 214.419,-52.9991 174.266,-48.3427"/>
<polygon fill="black" stroke="black" points="350.256,-107.862 360.376,-110.998 354.421,-102.235 350.256,-107.862"/>
<polygon fill="black" stroke="black" points="174.582,-44.8564 164.26,-47.244 173.818,-51.8146 174.582,-44.8564"/>
<text text-anchor="middle" x="353" y="-81.8" font-family="Times,serif" font-size="14.00">UART</text>
</g>
</g>
</svg>
